HIERARCHY
ROOT Hips
{
    OFFSET 0.000000 0.000000 0.000000
    CHANNELS 6 Xposition Yposition Zposition Zrotation Yrotation Xrotation
    JOINT Chest
    {
        OFFSET 0.000000 1.634758 -0.000000
        CHANNELS 3 Zrotation Yrotation Xrotation
        JOINT Chest2
        {
            OFFSET 0.000000 2.197341 0.000000
            CHANNELS 3 Zrotation Yrotation Xrotation
            JOINT Neck
            {
                OFFSET 0.000000 0.961544 0.000000
                CHANNELS 3 Zrotation Yrotation Xrotation
                JOINT Head
                {
                    OFFSET 0.000000 0.632542 -0.032565
                    CHANNELS 3 Zrotation Yrotation Xrotation
                    End Site
                    {
                        OFFSET -0.000001 0.439502 2.922845
                    }
                }
            }
            JOINT LeftCollar
            {
                OFFSET 0.167536 0.778237 -0.168280
                CHANNELS 3 Zrotation Yrotation Xrotation
                JOINT LeftShoulder
                {
                    OFFSET 0.831514 -0.002900 0.006458
                    CHANNELS 3 Zrotation Yrotation Xrotation
                    JOINT LeftElbow
                    {
                        OFFSET 2.272872 -0.026639 0.059314
                        CHANNELS 3 Zrotation Yrotation Xrotation
                        JOINT LeftWrist
                        {
                            OFFSET 2.081982 -0.024402 0.054333
                            CHANNELS 3 Zrotation Yrotation Xrotation
                            JOINT LeftHandThumb1
                            {
                                OFFSET 0.218903 -0.128645 0.283837
                                CHANNELS 3 Zrotation Yrotation Xrotation
                                JOINT LeftHandThumb2
                                {
                                    OFFSET 0.137157 -0.025101 0.077902
                                    CHANNELS 3 Zrotation Yrotation Xrotation
                                    JOINT LeftHandThumb3
                                    {
                                        OFFSET 0.165861 -0.067014 0.039226
                                        CHANNELS 3 Zrotation Yrotation Xrotation
                                        End Site
                                        {
                                            OFFSET 0.241157 -0.045065 0.107930
                                        }
                                    }
                                }
                            }
                            JOINT LeftHandFore1
                            {
                                OFFSET 0.767340 -0.016076 0.196678
                                CHANNELS 3 Zrotation Yrotation Xrotation
                                JOINT LeftHandFore2
                                {
                                    OFFSET 0.215173 -0.024035 0.010864
                                    CHANNELS 3 Zrotation Yrotation Xrotation
                                    JOINT LeftHandFore3
                                    {
                                        OFFSET 0.127998 -0.018363 0.006493
                                        CHANNELS 3 Zrotation Yrotation Xrotation
                                        End Site
                                        {
                                            OFFSET 0.191872 -0.022849 0.005461
                                        }
                                    }
                                }
                            }
                            JOINT LeftHandMiddle1
                            {
                                OFFSET 0.709887 -0.008320 0.018526
                                CHANNELS 3 Zrotation Yrotation Xrotation
                                JOINT LeftHandMiddle2
                                {
                                    OFFSET 0.243305 -0.028680 0.006624
                                    CHANNELS 3 Zrotation Yrotation Xrotation
                                    JOINT LeftHandMiddle3
                                    {
                                        OFFSET 0.145223 -0.016669 0.003951
                                        CHANNELS 3 Zrotation Yrotation Xrotation
                                        End Site
                                        {
                                            OFFSET 0.233621 -0.031666 0.006995
                                        }
                                    }
                                }
                            }
                            JOINT LeftHandRing1
                            {
                                OFFSET 0.743817 -0.005823 -0.153668
                                CHANNELS 3 Zrotation Yrotation Xrotation
                                JOINT LeftHandRing2
                                {
                                    OFFSET 0.349394 -0.050632 -0.009675
                                    CHANNELS 3 Zrotation Yrotation Xrotation
                                    JOINT LeftHandRing3
                                    {
                                        OFFSET 0.134332 -0.023631 0.001421
                                        CHANNELS 3 Zrotation Yrotation Xrotation
                                        End Site
                                        {
                                            OFFSET 0.116893 -0.027460 0.001278
                                        }
                                    }
                                }
                            }
                            JOINT LeftHandLittle1
                            {
                                OFFSET 0.689408 -0.053302 -0.308304
                                CHANNELS 3 Zrotation Yrotation Xrotation
                                JOINT LeftHandLittle2
                                {
                                    OFFSET 0.193251 -0.018757 -0.018874
                                    CHANNELS 3 Zrotation Yrotation Xrotation
                                    JOINT LeftHandLittle3
                                    {
                                        OFFSET 0.116994 -0.025997 -0.011519
                                        CHANNELS 3 Zrotation Yrotation Xrotation
                                        End Site
                                        {
                                            OFFSET 0.189726 -0.012367 -0.011818
                                        }
                                    }
                                }
                            }
                        }
                    }
                }
            }
            JOINT RightCollar
            {
                OFFSET -0.167536 0.778237 -0.168280
                CHANNELS 3 Zrotation Yrotation Xrotation
                JOINT RightShoulder
                {
                    OFFSET -0.831514 -0.002900 0.006457
                    CHANNELS 3 Zrotation Yrotation Xrotation
                    JOINT RightElbow
                    {
                        OFFSET -2.272872 -0.026639 0.059313
                        CHANNELS 3 Zrotation Yrotation Xrotation
                        JOINT RightWrist
                        {
                            OFFSET -2.081982 -0.024402 0.054331
                            CHANNELS 3 Zrotation Yrotation Xrotation
                            JOINT RightHandThumb1
                            {
                                OFFSET -0.218911 -0.128571 0.283837
                                CHANNELS 3 Zrotation Yrotation Xrotation
                                JOINT RightHandThumb2
                                {
                                    OFFSET -0.137157 -0.025101 0.077902
                                    CHANNELS 3 Zrotation Yrotation Xrotation
                                    JOINT RightHandThumb3
                                    {
                                        OFFSET -0.165861 -0.067014 0.039226
                                        CHANNELS 3 Zrotation Yrotation Xrotation
                                        End Site
                                        {
                                            OFFSET -0.229436 -0.065997 0.121819
                                        }
                                    }
                                }
                            }
                            JOINT RightHandFore1
                            {
                                OFFSET -0.767344 -0.015991 0.196679
                                CHANNELS 3 Zrotation Yrotation Xrotation
                                JOINT RightHandFore2
                                {
                                    OFFSET -0.215182 -0.023988 0.010864
                                    CHANNELS 3 Zrotation Yrotation Xrotation
                                    JOINT RightHandFore3
                                    {
                                        OFFSET -0.127999 -0.018333 0.006493
                                        CHANNELS 3 Zrotation Yrotation Xrotation
                                        End Site
                                        {
                                            OFFSET -0.191454 -0.022769 0.013914
                                        }
                                    }
                                }
                            }
                            JOINT RightHandMiddle1
                            {
                                OFFSET -0.709887 -0.008302 0.018525
                                CHANNELS 3 Zrotation Yrotation Xrotation
                                JOINT RightHandMiddle2
                                {
                                    OFFSET -0.243299 -0.028704 0.006624
                                    CHANNELS 3 Zrotation Yrotation Xrotation
                                    JOINT RightHandMiddle3
                                    {
                                        OFFSET -0.145226 -0.016685 0.003951
                                        CHANNELS 3 Zrotation Yrotation Xrotation
                                        End Site
                                        {
                                            OFFSET -0.233653 -0.031672 0.005780
                                        }
                                    }
                                }
                            }
                            JOINT RightHandRing1
                            {
                                OFFSET -0.743819 -0.005785 -0.153669
                                CHANNELS 3 Zrotation Yrotation Xrotation
                                JOINT RightHandRing2
                                {
                                    OFFSET -0.349398 -0.050607 -0.009675
                                    CHANNELS 3 Zrotation Yrotation Xrotation
                                    JOINT RightHandRing3
                                    {
                                        OFFSET -0.134041 -0.023657 -0.008853
                                        CHANNELS 3 Zrotation Yrotation Xrotation
                                        End Site
                                        {
                                            OFFSET -0.116640 -0.027483 -0.007747
                                        }
                                    }
                                }
                            }
                            JOINT RightHandLittle1
                            {
                                OFFSET -0.689403 -0.053298 -0.308303
                                CHANNELS 3 Zrotation Yrotation Xrotation
                                JOINT RightHandLittle2
                                {
                                    OFFSET -0.193254 -0.018751 -0.018875
                                    CHANNELS 3 Zrotation Yrotation Xrotation
                                    JOINT RightHandLittle3
                                    {
                                        OFFSET -0.116992 -0.025993 -0.011520
                                        CHANNELS 3 Zrotation Yrotation Xrotation
                                        End Site
                                        {
                                            OFFSET -0.188440 -0.012318 -0.025042
                                        }
                                    }
                                }
                            }
                        }
                    }
                }
            }
        }
    }
    JOINT LeftHip
    {
        OFFSET 0.685143 0.673822 -0.044491
        CHANNELS 3 Zrotation Yrotation Xrotation
        JOINT LeftKnee
        {
            OFFSET 0.085364 -3.750208 0.017676
            CHANNELS 3 Zrotation Yrotation Xrotation
            JOINT LeftAnkle
            {
                OFFSET 0.094583 -4.155206 0.019585
                CHANNELS 3 Zrotation Yrotation Xrotation
                JOINT LeftToe
                {
                    OFFSET -0.000000 -0.395925 0.621478
                    CHANNELS 3 Zrotation Yrotation Xrotation
                    End Site
                    {
                        OFFSET -0.000000 -0.077878 0.321152
                    }
                }
            }
        }
    }
    JOINT RightHip
    {
        OFFSET -0.685143 0.673822 -0.044492
        CHANNELS 3 Zrotation Yrotation Xrotation
        JOINT RightKnee
        {
            OFFSET -0.085364 -3.750208 0.017677
            CHANNELS 3 Zrotation Yrotation Xrotation
            JOINT RightAnkle
            {
                OFFSET -0.094583 -4.155206 0.019585
                CHANNELS 3 Zrotation Yrotation Xrotation
                JOINT RightToe
                {
                    OFFSET -0.000000 -0.395925 0.621478
                    CHANNELS 3 Zrotation Yrotation Xrotation
                    End Site
                    {
                        OFFSET -0.000000 -0.077878 0.321152
                    }
                }
            }
        }
    }
}
MOTION
Frames: 5
Frame Time: 0.033333
-0.015740 8.565386 -0.474365 180.000000 -0.000011 180.000000 -0.000002 0.000000 -3.571787 -0.000002 -0.000000 -3.645255 0.000003 -0.000003 4.684103 0.000005 -0.000009 11.067135 -14.340738 2.340576 0.008174 -57.347275 7.436138 -1.508873 0.000001 0.000001 -0.000000 -13.277363 0.939727 5.483352 -0.000003 0.000005 -0.000005 -0.000000 -0.000001 0.000000 -0.000000 0.000002 0.000002 0.000001 -0.000000 -0.000000 0.000000 0.000000 0.000000 -0.000000 0.000000 0.000000 0.000001 -0.000000 -0.000000 -0.000000 -0.000000 -0.000000 -0.000001 0.000000 0.000000 -0.000001 0.000000 0.000000 0.000001 -0.000000 0.000000 0.000002 -0.000000 -0.000000 0.000000 -0.000000 -0.000000 -0.000000 -0.000000 -0.000000 0.000001 -0.000001 0.000000 14.363555 -2.145061 0.007474 57.392231 -6.796876 -1.312964 0.000002 0.000001 0.000000 13.230738 -1.579262 4.955655 -0.000003 0.000001 -0.000005 0.000000 -0.000001 0.000002 0.000000 -0.000002 0.000002 -0.000000 -0.000000 -0.000000 -0.000000 -0.000000 0.000000 -0.000000 0.000000 0.000000 -0.000001 -0.000000 0.000000 -0.000000 0.000000 -0.000000 -0.000001 -0.000000 -0.000000 -0.000001 -0.000000 -0.000000 0.000000 0.000000 0.000000 0.000001 -0.000000 0.000000 -0.000000 -0.000001 0.000000 0.000001 -0.000000 0.000000 0.000001 -0.000000 0.000000 -0.828503 -0.104162 -2.863306 0.027870 0.268151 11.865098 1.634917 2.183560 -14.084697 0.000000 0.000000 0.000003 0.828502 0.104138 -2.862101 -0.027827 -0.267996 11.858108 -1.635353 -2.183605 -14.076485 -0.000000 -0.000000 0.000004
-0.016073 8.565821 -0.474415 180.000000 -0.000011 180.000000 0.024701 0.007929 -3.573887 0.025459 -0.003125 -3.647394 0.040838 0.002073 4.689623 0.000265 -0.005059 11.078055 -14.336761 2.356276 0.007041 -57.333088 7.472031 -1.434713 0.000000 -0.000000 -0.000001 -13.271327 0.882377 5.457874 0.000000 0.000007 0.000006 -0.003004 0.100663 -0.031718 -0.018299 0.254279 0.049515 -0.096457 -0.001963 -0.000720 -0.237647 -0.008686 0.011539 -0.224955 -0.008646 -0.002324 -0.225060 -0.007329 -0.000259 -0.404982 -0.013465 0.013008 -0.321021 -0.009183 0.020251 -0.313436 -0.002827 0.034003 -0.604868 -0.007141 0.006349 -0.314160 -0.005938 0.026005 -0.290401 -0.000013 0.056052 -0.880015 0.068935 0.027617 -0.424336 -0.005219 0.023820 14.344529 -2.152709 0.008695 57.359505 -6.841013 -1.235550 0.000003 0.000000 0.000000 13.217649 -1.521751 5.004312 -0.000001 -0.000001 -0.000008 0.061316 0.004224 0.085856 0.204532 -0.080465 0.138217 0.096454 0.001958 -0.000723 0.237723 -0.005130 0.012068 0.223721 -0.005289 0.024603 0.225059 0.007327 -0.000261 0.405238 -0.008364 0.008457 0.321732 -0.005125 -0.003225 0.313433 0.002823 0.034001 0.603593 -0.007057 -0.039800 0.312240 -0.005940 -0.043343 0.290397 0.000008 0.056052 0.858890 0.059153 -0.196483 0.411752 -0.010226 -0.104982 -0.831157 -0.106535 -2.837694 0.027608 0.266898 11.808871 1.646788 2.180748 -14.040009 -0.000000 -0.000003 -0.000001 0.826759 0.114951 -2.845737 -0.027675 -0.267274 11.825665 -1.625558 -2.196640 -14.061774 -0.000000 -0.000001 0.000005
-0.017043 8.567085 -0.474564 180.000000 -0.000011 180.000000 0.096132 0.030860 -3.580084 0.099081 -0.012153 -3.653737 0.156804 0.008045 4.705555 0.001020 -0.019730 11.109556 -14.326503 2.399265 0.003751 -57.296005 7.567795 -1.221474 0.000001 -0.000000 0.000000 -13.254441 0.719395 5.385471 -0.000001 0.000007 0.000003 -0.011235 0.385008 -0.121227 -0.067528 0.972570 0.190639 -0.369050 -0.007590 -0.002771 -0.909276 -0.032970 0.044187 -0.860717 -0.032846 -0.008857 -0.861110 -0.027912 -0.000998 -1.549521 -0.051108 0.049864 -1.228270 -0.034878 0.077542 -1.199246 -0.010526 0.130099 -2.314263 -0.028278 0.024305 -1.202017 -0.022632 0.099553 -1.111117 0.000396 0.214474 -3.368163 0.256761 0.105235 -1.623533 -0.021592 0.091052 14.290178 -2.172340 0.012189 57.312466 -9.643483 -0.988547 -0.002874 5.612267 -0.065962 13.181001 -1.358652 5.136569 -0.000006 -0.000007 -0.000006 0.234883 0.016017 0.328083 0.782521 -0.310509 0.525416 0.369050 0.007585 -0.002777 0.909534 -0.019892 0.046211 0.855967 -0.020468 0.094170 0.861108 0.027921 -0.000997 1.550455 -0.032412 0.032453 1.230965 -0.019867 -0.012280 1.199244 0.010526 0.130095 2.309429 -0.026052 -0.152263 1.194691 -0.022134 -0.165887 1.111113 -0.000397 0.214478 3.285289 0.232972 -0.752181 1.575487 -0.037626 -0.401744 -0.838874 -0.113586 -2.762401 0.026843 0.263215 11.643614 1.681512 2.172515 -13.909171 -0.000000 -0.000000 -0.000000 0.821710 0.146693 -2.798470 -0.027239 -0.265183 11.731849 -1.596790 -2.234961 -14.019279 -0.000000 -0.000001 0.000008
-0.018602 8.569118 -0.474808 180.000000 -0.000011 180.000000 0.210277 0.067524 -3.590216 0.216730 -0.026550 -3.664205 0.338079 0.017431 4.730996 0.002244 -0.043499 11.159670 -14.312547 2.463374 -0.001517 -57.243874 7.705507 -0.882962 0.000001 -0.000000 -0.000000 -13.228592 0.464362 5.272128 0.000007 0.000005 -0.000002 -0.023251 0.826388 -0.259934 -0.136365 2.087570 0.414268 -0.792615 -0.016459 -0.005983 -1.952933 -0.069924 0.095021 -1.848644 -0.069753 -0.018912 -1.849448 -0.059526 -0.002150 -3.328024 -0.108389 0.107384 -2.638036 -0.074046 0.166727 -2.575680 -0.021689 0.279417 -4.970354 -0.063920 0.052326 -2.581650 -0.048310 0.213994 -2.386436 0.002119 0.460661 -7.237670 0.528106 0.225435 -3.486812 -0.051800 0.195373 14.204577 -2.198972 0.017707 57.177437 -12.684027 -0.606239 -0.013258 11.603186 -0.137788 13.124797 -1.104086 5.331714 -0.000010 -0.000001 -0.000013 0.505367 0.033905 0.703283 1.680876 -0.675774 1.116357 0.792619 0.016447 -0.005990 1.953386 -0.043607 0.099368 1.838345 -0.044743 0.202364 1.849451 0.059545 -0.002141 3.329883 -0.070991 0.069990 2.643750 -0.043536 -0.026185 2.575689 0.021689 0.279415 4.960125 -0.052789 -0.326890 2.565973 -0.045551 -0.356427 2.386437 -0.002121 0.460673 7.052873 0.522545 -1.616077 3.384018 -0.075793 -0.862995 -0.851283 -0.125210 -2.639190 0.025616 0.257189 11.373439 1.737740 2.159085 -13.696572 -0.000000 -0.000002 0.000000 0.813630 0.198334 -2.723018 -0.026550 -0.261841 11.581910 -1.550024 -2.297447 -13.951455 0.000000 0.000000 0.000004
-0.020703 8.571860 -0.475144 180.000000 -0.000011 180.000000 0.363127 0.116655 -3.604115 0.374274 -0.045770 -3.678753 0.574839 0.029660 4.765063 0.003919 -0.076027 11.226423 -14.297410 2.542423 -0.008579 -57.184620 7.867154 -0.433040 -0.000001 0.000000 0.000000 -13.195741 0.130850 5.123792 -0.000005 0.000004 -0.000004 -0.037417 1.398068 -0.439142 -0.211351 3.531450 0.713081 -1.342016 -0.028143 -0.010178 -3.306672 -0.116443 0.161119 -3.130108 -0.116359 -0.031801 -3.131407 -0.099868 -0.003655 -5.634921 -0.180480 0.182381 -4.466620 -0.123468 0.282663 -4.361055 -0.034743 0.473062 -8.415299 -0.115207 0.089117 -4.371155 -0.081134 0.362707 -4.040692 0.006201 0.779987 -12.262253 0.842918 0.383058 -5.903360 -0.099629 0.330692 14.091763 -2.227608 0.024985 56.936687 -15.223056 -0.104243 -0.027628 16.464983 -0.198287 13.053105 -0.772157 5.568949 -0.000004 0.000001 -0.000006 0.857636 0.056318 1.187759 2.846697 -1.163395 1.862737 1.342023 0.028127 -0.010194 3.307212 -0.075780 0.168478 3.112454 -0.077471 0.342850 3.131415 0.099904 -0.003644 5.637740 -0.123235 0.119067 4.476126 -0.075620 -0.043960 4.361059 0.034749 0.473054 8.398311 -0.082450 -0.552931 4.344714 -0.072756 -0.603716 4.040689 -0.006198 0.780003 11.934521 0.933334 -2.735070 5.730200 -0.117303 -1.461231 -0.868004 -0.141262 -2.467982 0.023962 0.248827 10.998940 1.814158 2.140565 -13.404899 0.000000 0.000000 -0.000000 0.802788 0.268834 -2.622241 -0.025641 -0.257367 11.381350 -1.486285 -2.383009 -13.860892 0.000000 -0.000000 0.000006
